<svg xmlns="http://www.w3.org/2000/svg" viewBox="0 0 104 88" fill="none">
  <path d="M49 9c6 20 16 31 38 36-22 5-32 16-38 36-6-20-16-31-38-36 22-5 32-16 38-36Z" fill="#9ff0c2" stroke="#6f7782" stroke-width="4" stroke-linejoin="round"/>
  <path d="M13 3c2 8 6 12 14 14-8 2-12 6-14 14-2-8-6-12-14-14 8-2 12-6 14-14Z" transform="translate(7 6)" fill="#fffaf0" stroke="#6f7782" stroke-width="3" stroke-linejoin="round"/>
  <path d="M83 45c2 8 6 12 14 14-8 2-12 6-14 14-2-8-6-12-14-14 8-2 12-6 14-14Z" fill="#fffaf0" stroke="#6f7782" stroke-width="3" stroke-linejoin="round"/>
</svg>
