<svg xmlns="http://www.w3.org/2000/svg" viewBox="0 0 96 96" fill="none">
  <path d="M43 8c5 22 14 35 36 40-22 5-31 18-36 40-5-22-14-35-36-40 22-5 31-18 36-40Z" fill="#ff9aad" stroke="#6f7782" stroke-width="4" stroke-linejoin="round"/>
  <path d="M75 7c2 9 6 14 15 16-9 2-13 7-15 16-2-9-6-14-15-16 9-2 13-7 15-16Z" fill="#fffaf0" stroke="#6f7782" stroke-width="3" stroke-linejoin="round"/>
  <path d="M19 55c2 9 6 14 15 16-9 2-13 7-15 16-2-9-6-14-15-16 9-2 13-7 15-16Z" fill="#fffaf0" stroke="#6f7782" stroke-width="3" stroke-linejoin="round"/>
</svg>
